<?xml version="1.0" encoding="UTF-8" standalone="no"?>
<!DOCTYPE svg PUBLIC "-//W3C//DTD SVG 1.1//EN"
 "http://www.w3.org/Graphics/SVG/1.1/DTD/svg11.dtd">
<!-- Generated by graphviz version 2.26.3 (20100126.1600)
 -->
<!-- Title: objetivos Pages: 1 -->
<svg width="1005pt" height="616pt"
 viewBox="0.00 0.00 1005.00 616.00" xmlns="http://www.w3.org/2000/svg" xmlns:xlink="http://www.w3.org/1999/xlink">
<g id="graph1" class="graph" transform="scale(1 1) rotate(0) translate(4 612)">
<title>objetivos</title>
<polygon fill="white" stroke="white" points="-4,5 -4,-612 1002,-612 1002,5 -4,5"/>
<!-- 1 -->
<g id="node1" class="node"><title>1</title>
<polygon fill="yellow" stroke="black" points="662,-608 368,-608 368,-572 662,-572 662,-608"/>
<text text-anchor="middle" x="515" y="-586.4" font-family="Times Roman,serif" font-size="14.00">Lograr un sistema de delivery de comida</text>
</g>
<!-- 2 -->
<g id="node2" class="node"><title>2</title>
<ellipse fill="black" stroke="black" cx="515" cy="-532" rx="1.8" ry="1.8"/>
</g>
<!-- 1&#45;&gt;2 -->
<g id="edge2" class="edge"><title>1&#45;&gt;2</title>
<path fill="none" stroke="black" d="M515,-561.949C515,-550.273 515,-538.391 515,-533.887"/>
<polygon fill="black" stroke="black" points="511.5,-561.966 515,-571.966 518.5,-561.966 511.5,-561.966"/>
</g>
<!-- 3 -->
<g id="node4" class="node"><title>3</title>
<polygon fill="yellow" stroke="black" points="321,-492 11,-492 11,-456 321,-456 321,-492"/>
<text text-anchor="middle" x="166" y="-470.4" font-family="Times Roman,serif" font-size="14.00">Lograr que se registre el pedido del cliente</text>
</g>
<!-- 2&#45;&gt;3 -->
<g id="edge4" class="edge"><title>2&#45;&gt;3</title>
<path fill="none" stroke="black" d="M502.922,-529.993C467.11,-524.041 358.752,-506.033 274.485,-492.029"/>
<polygon fill="black" stroke="black" points="502.684,-533.501 513.122,-531.688 503.831,-526.596 502.684,-533.501"/>
</g>
<!-- 4 -->
<g id="node6" class="node"><title>4</title>
<polygon fill="yellow" stroke="black" points="691,-492 339,-492 339,-456 691,-456 691,-492"/>
<text text-anchor="middle" x="515" y="-470.4" font-family="Times Roman,serif" font-size="14.00">Lograr que dado el pedido, el cocinero lo prepare</text>
</g>
<!-- 2&#45;&gt;4 -->
<g id="edge6" class="edge"><title>2&#45;&gt;4</title>
<path fill="none" stroke="black" d="M515,-519.787C515,-511.766 515,-501.13 515,-492.128"/>
<polygon fill="black" stroke="black" points="511.5,-520.07 515,-530.07 518.5,-520.07 511.5,-520.07"/>
</g>
<!-- 15 -->
<g id="node29" class="node"><title>15</title>
<polygon fill="yellow" stroke="black" points="997,-376 519,-376 519,-340 997,-340 997,-376"/>
<text text-anchor="middle" x="758" y="-354.4" font-family="Times Roman,serif" font-size="14.00">Lograr que preparado el pedido, se lo lleve a la direccion del cliente</text>
</g>
<!-- 2&#45;&gt;15 -->
<g id="edge30" class="edge"><title>2&#45;&gt;15</title>
<path fill="none" stroke="black" d="M527.147,-530.819C563.908,-527.027 673.087,-514.105 700,-492 736.24,-462.235 750.391,-405.51 755.453,-376.336"/>
<polygon fill="black" stroke="black" points="526.775,-527.338 517.167,-531.803 527.462,-534.305 526.775,-527.338"/>
</g>
<!-- 5 -->
<g id="node8" class="node"><title>5</title>
<ellipse fill="black" stroke="black" cx="399" cy="-416" rx="1.8" ry="1.8"/>
</g>
<!-- 4&#45;&gt;5 -->
<g id="edge8" class="edge"><title>4&#45;&gt;5</title>
<path fill="none" stroke="black" d="M469.98,-451.49C441.831,-437.416 409.382,-421.191 401.038,-417.019"/>
<polygon fill="black" stroke="black" points="468.423,-454.625 478.933,-455.966 471.554,-448.364 468.423,-454.625"/>
</g>
<!-- 6 -->
<g id="node10" class="node"><title>6</title>
<polygon fill="yellow" stroke="black" points="501,-376 297,-376 297,-340 501,-340 501,-376"/>
<text text-anchor="middle" x="399" y="-354.4" font-family="Times Roman,serif" font-size="14.00">Contratar un cocinero piola</text>
</g>
<!-- 5&#45;&gt;6 -->
<g id="edge10" class="edge"><title>5&#45;&gt;6</title>
<path fill="none" stroke="black" d="M399,-403.787C399,-395.766 399,-385.13 399,-376.128"/>
<polygon fill="black" stroke="black" points="395.5,-404.07 399,-414.07 402.5,-404.07 395.5,-404.07"/>
</g>
<!-- 7 -->
<g id="node12" class="node"><title>7</title>
<polygon fill="yellow" stroke="black" points="279,-376 77,-376 77,-340 279,-340 279,-376"/>
<text text-anchor="middle" x="178" y="-354.4" font-family="Times Roman,serif" font-size="14.00">Comprarle una cocina piola</text>
</g>
<!-- 5&#45;&gt;7 -->
<g id="edge12" class="edge"><title>5&#45;&gt;7</title>
<path fill="none" stroke="black" d="M387.231,-412.911C361.222,-406.085 297.16,-389.273 246.719,-376.035"/>
<polygon fill="black" stroke="black" points="386.529,-416.345 397.089,-415.499 388.305,-409.575 386.529,-416.345"/>
</g>
<!-- 8 -->
<g id="node14" class="node"><title>8</title>
<polygon fill="yellow" stroke="black" points="268,-302 58,-302 58,-266 268,-266 268,-302"/>
<text text-anchor="middle" x="163" y="-280.4" font-family="Times Roman,serif" font-size="14.00">Comprarle un horno nuclear</text>
</g>
<!-- 7&#45;&gt;8 -->
<g id="edge14" class="edge"><title>7&#45;&gt;8</title>
<path fill="none" stroke="black" d="M172.264,-329.702C170.385,-320.431 168.349,-310.387 166.665,-302.082"/>
<polygon fill="black" stroke="black" points="168.875,-330.603 174.292,-339.708 175.736,-329.212 168.875,-330.603"/>
</g>
<!-- 12 -->
<g id="node22" class="node"><title>12</title>
<polygon fill="yellow" stroke="black" points="519,-302 287,-302 287,-266 519,-266 519,-302"/>
<text text-anchor="middle" x="403" y="-280.4" font-family="Times Roman,serif" font-size="14.00">Comprarle un horno para pizza</text>
</g>
<!-- 7&#45;&gt;12 -->
<g id="edge22" class="edge"><title>7&#45;&gt;12</title>
<path fill="none" stroke="black" d="M242.418,-336.814C275.788,-325.839 316.11,-312.577 348.001,-302.089"/>
<polygon fill="black" stroke="black" points="241.159,-333.543 232.753,-339.992 243.346,-340.193 241.159,-333.543"/>
</g>
<!-- 9 -->
<g id="node16" class="node"><title>9</title>
<ellipse fill="#aacccc" stroke="black" cx="349" cy="-106" rx="104.86" ry="105.359"/>
<text text-anchor="middle" x="349" y="-102.4" font-family="Times Roman,serif" font-size="14.00">Hecatombe nuclear</text>
</g>
<!-- 8&#45;&gt;9 -->
<g id="edge16" class="edge"><title>8&#45;&gt;9</title>
<path fill="none" stroke="black" d="M189.114,-259.009C210.914,-238.147 243.126,-207.32 272.936,-178.793"/>
<polygon fill="black" stroke="black" points="186.663,-256.51 181.858,-265.953 191.503,-261.567 186.663,-256.51"/>
<text text-anchor="middle" x="229.5" y="-235.4" font-family="Times Roman,serif" font-size="14.00">++</text>
</g>
<!-- 10 -->
<g id="node18" class="node"><title>10</title>
<ellipse fill="#aacccc" stroke="black" cx="41" cy="-106" rx="41.2167" ry="41.7193"/>
<text text-anchor="middle" x="41" y="-102.4" font-family="Times Roman,serif" font-size="14.00">Precio</text>
</g>
<!-- 8&#45;&gt;10 -->
<g id="edge18" class="edge"><title>8&#45;&gt;10</title>
<path fill="none" stroke="black" d="M133.598,-258.982C119.504,-245.964 103.101,-229.201 91,-212 76.4826,-191.364 64.298,-165.85 55.5923,-145.024"/>
<polygon fill="black" stroke="black" points="131.383,-261.697 141.148,-265.807 136.077,-256.505 131.383,-261.697"/>
<text text-anchor="middle" x="126.5" y="-235.4" font-family="Times Roman,serif" font-size="14.00">&#45;&#45;</text>
</g>
<!-- 11 -->
<g id="node20" class="node"><title>11</title>
<ellipse fill="#aacccc" stroke="black" cx="163" cy="-106" rx="63.1385" ry="63.6396"/>
<text text-anchor="middle" x="163" y="-102.4" font-family="Times Roman,serif" font-size="14.00"> Seguridad</text>
</g>
<!-- 8&#45;&gt;11 -->
<g id="edge20" class="edge"><title>8&#45;&gt;11</title>
<path fill="none" stroke="black" d="M163,-255.844C163,-232.792 163,-199.293 163,-169.812"/>
<polygon fill="black" stroke="black" points="159.5,-255.953 163,-265.953 166.5,-255.953 159.5,-255.953"/>
<text text-anchor="middle" x="168.5" y="-235.4" font-family="Times Roman,serif" font-size="14.00">&#45;&#45;</text>
</g>
<!-- 12&#45;&gt;9 -->
<g id="edge28" class="edge"><title>12&#45;&gt;9</title>
<path fill="none" stroke="black" d="M393.583,-256.061C392.698,-253.341 391.824,-250.62 391,-248 386.874,-234.879 382.638,-221.041 378.519,-207.358"/>
<polygon fill="black" stroke="black" points="390.315,-257.327 396.774,-265.725 396.962,-255.132 390.315,-257.327"/>
<text text-anchor="middle" x="396.5" y="-235.4" font-family="Times Roman,serif" font-size="14.00">&#45;&#45;</text>
</g>
<!-- 13 -->
<g id="node24" class="node"><title>13</title>
<ellipse fill="#aacccc" stroke="black" cx="631" cy="-106" rx="60.8112" ry="60.8112"/>
<text text-anchor="middle" x="631" y="-102.4" font-family="Times Roman,serif" font-size="14.00">Seguridad</text>
</g>
<!-- 12&#45;&gt;13 -->
<g id="edge24" class="edge"><title>12&#45;&gt;13</title>
<path fill="none" stroke="black" d="M471.751,-262.357C501.415,-250.697 535.157,-234.095 561,-212 577.678,-197.741 591.967,-178.553 603.203,-160.421"/>
<polygon fill="black" stroke="black" points="470.374,-259.136 462.278,-265.97 472.869,-265.677 470.374,-259.136"/>
<text text-anchor="middle" x="546.5" y="-235.4" font-family="Times Roman,serif" font-size="14.00">++</text>
</g>
<!-- 14 -->
<g id="node26" class="node"><title>14</title>
<ellipse fill="#aacccc" stroke="black" cx="512" cy="-106" rx="39.8075" ry="40.3051"/>
<text text-anchor="middle" x="512" y="-102.4" font-family="Times Roman,serif" font-size="14.00"> costo</text>
</g>
<!-- 12&#45;&gt;14 -->
<g id="edge26" class="edge"><title>12&#45;&gt;14</title>
<path fill="none" stroke="black" d="M423.341,-257.544C430.363,-248.66 438.382,-238.78 446,-230 453.212,-221.689 456.833,-221.113 463,-212 477.203,-191.012 489.218,-165.247 497.796,-144.375"/>
<polygon fill="black" stroke="black" points="420.372,-255.659 416.96,-265.69 425.882,-259.976 420.372,-255.659"/>
<text text-anchor="middle" x="458.5" y="-235.4" font-family="Times Roman,serif" font-size="14.00">++</text>
</g>
<!-- 16 -->
<g id="node31" class="node"><title>16</title>
<polygon fill="yellow" stroke="black" points="833,-302 701,-302 701,-266 833,-266 833,-302"/>
<text text-anchor="middle" x="767" y="-280.4" font-family="Times Roman,serif" font-size="14.00">Llevarlo en moto</text>
</g>
<!-- 15&#45;&gt;16 -->
<g id="edge32" class="edge"><title>15&#45;&gt;16</title>
<path fill="none" stroke="black" d="M761.442,-329.702C762.569,-320.431 763.791,-310.387 764.801,-302.082"/>
<polygon fill="black" stroke="black" points="757.958,-329.358 760.225,-339.708 764.907,-330.204 757.958,-329.358"/>
</g>
<!-- 18 -->
<g id="node36" class="node"><title>18</title>
<polygon fill="yellow" stroke="black" points="683,-302 537,-302 537,-266 683,-266 683,-302"/>
<text text-anchor="middle" x="610" y="-280.4" font-family="Times Roman,serif" font-size="14.00">Llevarlo en tanque</text>
</g>
<!-- 15&#45;&gt;18 -->
<g id="edge38" class="edge"><title>15&#45;&gt;18</title>
<path fill="none" stroke="black" d="M712.589,-335.294C691.232,-324.616 666.12,-312.06 646.087,-302.044"/>
<polygon fill="black" stroke="black" points="711.286,-338.556 721.795,-339.898 714.416,-332.295 711.286,-338.556"/>
</g>
<!-- 16&#45;&gt;13 -->
<g id="edge36" class="edge"><title>16&#45;&gt;13</title>
<path fill="none" stroke="black" d="M741.63,-258.335C728.901,-244.968 713.56,-228.09 701,-212 687.769,-195.05 674.463,-175.636 663.058,-158.093"/>
<polygon fill="black" stroke="black" points="739.327,-260.989 748.783,-265.768 744.371,-256.135 739.327,-260.989"/>
<text text-anchor="middle" x="735.5" y="-235.4" font-family="Times Roman,serif" font-size="14.00">&#45;&#45;</text>
</g>
<!-- 17 -->
<g id="node33" class="node"><title>17</title>
<ellipse fill="#aacccc" stroke="black" cx="767" cy="-106" rx="56.7776" ry="57.2756"/>
<text text-anchor="middle" x="767" y="-102.4" font-family="Times Roman,serif" font-size="14.00">Velocidad</text>
</g>
<!-- 16&#45;&gt;17 -->
<g id="edge34" class="edge"><title>16&#45;&gt;17</title>
<path fill="none" stroke="black" d="M767,-255.86C767,-231.231 767,-194.668 767,-163.823"/>
<polygon fill="black" stroke="black" points="763.5,-255.953 767,-265.953 770.5,-255.953 763.5,-255.953"/>
<text text-anchor="middle" x="779.5" y="-235.4" font-family="Times Roman,serif" font-size="14.00">++</text>
</g>
<!-- 18&#45;&gt;13 -->
<g id="edge44" class="edge"><title>18&#45;&gt;13</title>
<path fill="none" stroke="black" d="M613.324,-255.822C616.143,-231.929 620.285,-196.825 623.85,-166.602"/>
<polygon fill="black" stroke="black" points="609.825,-255.612 612.129,-265.953 616.777,-256.432 609.825,-255.612"/>
<text text-anchor="middle" x="621.5" y="-235.4" font-family="Times Roman,serif" font-size="14.00">&#45;&#45;</text>
</g>
<!-- 18&#45;&gt;14 -->
<g id="edge42" class="edge"><title>18&#45;&gt;14</title>
<path fill="none" stroke="black" d="M591.495,-257.474C589.297,-254.288 587.092,-251.075 585,-248 574.182,-232.102 570.396,-228.778 561,-212 548.617,-189.889 536.645,-164.098 527.634,-143.493"/>
<polygon fill="black" stroke="black" points="588.643,-259.504 597.214,-265.732 594.398,-255.519 588.643,-259.504"/>
<text text-anchor="middle" x="597.5" y="-235.4" font-family="Times Roman,serif" font-size="14.00">++</text>
</g>
<!-- 18&#45;&gt;17 -->
<g id="edge40" class="edge"><title>18&#45;&gt;17</title>
<path fill="none" stroke="black" d="M646.366,-259.716C664.083,-246.82 684.967,-229.946 701,-212 715.732,-195.51 729.202,-175.333 740.077,-157.025"/>
<polygon fill="black" stroke="black" points="644.066,-257.058 637.958,-265.715 648.132,-262.756 644.066,-257.058"/>
<text text-anchor="middle" x="692.5" y="-235.4" font-family="Times Roman,serif" font-size="14.00">++</text>
</g>
</g>
</svg>
