<?xml version="1.0" encoding="UTF-8" standalone="no"?>
<!DOCTYPE svg PUBLIC "-//W3C//DTD SVG 1.1//EN"
 "http://www.w3.org/Graphics/SVG/1.1/DTD/svg11.dtd">
<!-- Generated by graphviz version 2.26.3 (20100126.1600)
 -->
<!-- Title: objetivos Pages: 1 -->
<svg width="2006pt" height="688pt"
 viewBox="0.00 0.00 2006.00 688.00" xmlns="http://www.w3.org/2000/svg" xmlns:xlink="http://www.w3.org/1999/xlink">
<g id="graph1" class="graph" transform="scale(1 1) rotate(0) translate(4 684)">
<title>objetivos</title>
<polygon fill="white" stroke="white" points="-4,5 -4,-684 2003,-684 2003,5 -4,5"/>
<!-- 1 -->
<g id="node1" class="node"><title>1</title>
<polygon fill="yellow" stroke="black" points="1330.84,-680 844.316,-680 719.158,-628 1205.68,-628 1330.84,-680"/>
<text text-anchor="middle" x="1025" y="-650.4" font-family="Times Roman,serif" font-size="14.00">Lograr un sistema de delivery de comida</text>
</g>
<!-- 2 -->
<g id="node2" class="node"><title>2</title>
<ellipse fill="black" stroke="black" cx="1025" cy="-586" rx="3.6" ry="3.6"/>
</g>
<!-- 1&#45;&gt;2 -->
<g id="edge2" class="edge"><title>1&#45;&gt;2</title>
<path fill="none" stroke="black" d="M1025,-617.605C1025,-606.343 1025,-595.433 1025,-589.851"/>
<polygon fill="black" stroke="black" points="1021.5,-617.904 1025,-627.904 1028.5,-617.904 1021.5,-617.904"/>
</g>
<!-- 3 -->
<g id="node4" class="node"><title>3</title>
<polygon fill="yellow" stroke="black" points="641.894,-544 131.424,-544 0.106355,-492 510.576,-492 641.894,-544"/>
<text text-anchor="middle" x="321" y="-514.4" font-family="Times Roman,serif" font-size="14.00">Lograr que se registre el pedido del cliente</text>
</g>
<!-- 2&#45;&gt;3 -->
<g id="edge4" class="edge"><title>2&#45;&gt;3</title>
<path fill="none" stroke="black" d="M1021.21,-585.634C990.178,-582.637 774.273,-561.782 590.309,-544.013"/>
</g>
<!-- 4 -->
<g id="node6" class="node"><title>4</title>
<polygon fill="yellow" stroke="black" points="1389.94,-544 809.404,-544 660.063,-492 1240.6,-492 1389.94,-544"/>
<text text-anchor="middle" x="1025" y="-514.4" font-family="Times Roman,serif" font-size="14.00">Lograr que dado el pedido, el cocinero lo prepare</text>
</g>
<!-- 2&#45;&gt;4 -->
<g id="edge6" class="edge"><title>2&#45;&gt;4</title>
<path fill="none" stroke="black" d="M1025,-582.344C1025,-575.172 1025,-558.691 1025,-544.205"/>
</g>
<!-- 14 -->
<g id="node28" class="node"><title>14</title>
<polygon fill="yellow" stroke="black" points="1998.1,-408 1208.91,-408 1005.9,-356 1795.09,-356 1998.1,-408"/>
<text text-anchor="middle" x="1502" y="-378.4" font-family="Times Roman,serif" font-size="14.00">Lograr que preparado el pedido, se lo lleve a la direccion del cliente</text>
</g>
<!-- 2&#45;&gt;14 -->
<g id="edge30" class="edge"><title>2&#45;&gt;14</title>
<path fill="none" stroke="black" d="M1028.81,-585.772C1066.13,-583.509 1365.75,-564.763 1399,-544 1449.75,-512.316 1479.97,-445.418 1493.5,-408.265"/>
</g>
<!-- 5 -->
<g id="node8" class="node"><title>5</title>
<ellipse fill="black" stroke="black" cx="776" cy="-450" rx="3.6" ry="3.6"/>
</g>
<!-- 4&#45;&gt;5 -->
<g id="edge8" class="edge"><title>4&#45;&gt;5</title>
<path fill="none" stroke="black" d="M919.648,-489.229C860.622,-473.11 795.712,-455.383 779.713,-451.014"/>
<polygon fill="black" stroke="black" points="918.873,-492.646 929.442,-491.904 920.718,-485.893 918.873,-492.646"/>
</g>
<!-- 6 -->
<g id="node10" class="node"><title>6</title>
<polygon fill="yellow" stroke="black" points="988.034,-408 650.735,-408 563.966,-356 901.265,-356 988.034,-408"/>
<text text-anchor="middle" x="776" y="-378.4" font-family="Times Roman,serif" font-size="14.00">Contratar un cocinero piola</text>
</g>
<!-- 5&#45;&gt;6 -->
<g id="edge10" class="edge"><title>5&#45;&gt;6</title>
<path fill="none" stroke="black" d="M776,-446.344C776,-439.172 776,-422.691 776,-408.205"/>
</g>
<!-- 7 -->
<g id="node12" class="node"><title>7</title>
<polygon fill="yellow" stroke="black" points="545.961,-408 211.96,-408 126.039,-356 460.04,-356 545.961,-408"/>
<text text-anchor="middle" x="336" y="-378.4" font-family="Times Roman,serif" font-size="14.00">Comprarle una cocina piola</text>
</g>
<!-- 5&#45;&gt;7 -->
<g id="edge12" class="edge"><title>5&#45;&gt;7</title>
<path fill="none" stroke="black" d="M772.196,-449.412C748.342,-445.726 616.743,-425.388 504.268,-408.005"/>
</g>
<!-- 8 -->
<g id="node14" class="node"><title>8</title>
<polygon fill="yellow" stroke="black" points="545.755,-318 197.765,-318 108.245,-266 456.235,-266 545.755,-318"/>
<text text-anchor="middle" x="327" y="-288.4" font-family="Times Roman,serif" font-size="14.00">Comprarle un horno nuclear</text>
</g>
<!-- 7&#45;&gt;8 -->
<g id="edge14" class="edge"><title>7&#45;&gt;8</title>
<path fill="none" stroke="black" d="M332.386,-345.865C331.464,-336.644 330.491,-326.907 329.629,-318.285"/>
<polygon fill="black" stroke="black" points="328.919,-346.366 333.397,-355.968 335.884,-345.67 328.919,-346.366"/>
</g>
<!-- 12 -->
<g id="node22" class="node"><title>12</title>
<polygon fill="yellow" stroke="black" points="1044.03,-318 662.198,-318 563.973,-266 945.802,-266 1044.03,-318"/>
<text text-anchor="middle" x="804" y="-288.4" font-family="Times Roman,serif" font-size="14.00">Comprarle un horno para pizza</text>
</g>
<!-- 7&#45;&gt;12 -->
<g id="edge22" class="edge"><title>7&#45;&gt;12</title>
<path fill="none" stroke="black" d="M473.128,-355.629C534.662,-343.796 607.048,-329.875 668.4,-318.077"/>
<polygon fill="black" stroke="black" points="472.115,-352.26 462.956,-357.585 473.437,-359.134 472.115,-352.26"/>
</g>
<!-- 9 -->
<g id="node16" class="node"><title>9</title>
<ellipse fill="#aacccc" stroke="black" cx="719" cy="-106" rx="104.86" ry="105.359"/>
<text text-anchor="middle" x="719" y="-102.4" font-family="Times Roman,serif" font-size="14.00">Hecatombe nuclear</text>
</g>
<!-- 8&#45;&gt;9 -->
<g id="edge16" class="edge"><title>8&#45;&gt;9</title>
<path fill="none" stroke="black" stroke-width="2" stroke-dasharray="1,5" d="M381.919,-265.942C441.933,-237.465 539.488,-191.177 614.246,-155.705"/>
<polygon fill="black" stroke="black" points="616.174,-158.664 623.708,-151.215 613.173,-152.34 616.174,-158.664"/>
<text text-anchor="middle" x="465.5" y="-235.4" font-family="Times Roman,serif" font-size="14.00">++</text>
</g>
<!-- 10 -->
<g id="node18" class="node"><title>10</title>
<ellipse fill="#aacccc" stroke="black" cx="327" cy="-106" rx="41.2167" ry="41.7193"/>
<text text-anchor="middle" x="327" y="-102.4" font-family="Times Roman,serif" font-size="14.00">Precio</text>
</g>
<!-- 8&#45;&gt;10 -->
<g id="edge18" class="edge"><title>8&#45;&gt;10</title>
<path fill="none" stroke="black" stroke-width="2" stroke-dasharray="1,5" d="M327,-265.745C327,-237.765 327,-192.747 327,-157.622"/>
<polygon fill="black" stroke="black" points="330.5,-157.535 327,-147.535 323.5,-157.535 330.5,-157.535"/>
<text text-anchor="middle" x="332.5" y="-235.4" font-family="Times Roman,serif" font-size="14.00">&#45;&#45;</text>
</g>
<!-- 11 -->
<g id="node20" class="node"><title>11</title>
<ellipse fill="#aacccc" stroke="black" cx="949" cy="-106" rx="60.8112" ry="60.8112"/>
<text text-anchor="middle" x="949" y="-102.4" font-family="Times Roman,serif" font-size="14.00">Seguridad</text>
</g>
<!-- 8&#45;&gt;11 -->
<g id="edge20" class="edge"><title>8&#45;&gt;11</title>
<path fill="none" stroke="black" stroke-width="2" stroke-dasharray="1,5" d="M469.719,-273.711C607.733,-255.336 800.644,-227.574 833,-212 858.829,-199.568 882.998,-179.483 902.518,-160.123"/>
<polygon fill="black" stroke="black" points="905.247,-162.339 909.765,-152.755 900.257,-157.43 905.247,-162.339"/>
<text text-anchor="middle" x="754.5" y="-235.4" font-family="Times Roman,serif" font-size="14.00">&#45;&#45;</text>
</g>
<!-- 12&#45;&gt;9 -->
<g id="edge28" class="edge"><title>12&#45;&gt;9</title>
<path fill="none" stroke="black" stroke-width="2" stroke-dasharray="1,5" d="M791.469,-265.986C788.658,-260.084 785.707,-253.835 783,-248 777.559,-236.272 771.918,-223.971 766.341,-211.721"/>
<polygon fill="black" stroke="black" points="769.417,-210.03 762.094,-202.373 763.044,-212.926 769.417,-210.03"/>
<text text-anchor="middle" x="788.5" y="-235.4" font-family="Times Roman,serif" font-size="14.00">&#45;&#45;</text>
</g>
<!-- 12&#45;&gt;11 -->
<g id="edge24" class="edge"><title>12&#45;&gt;11</title>
<path fill="none" stroke="black" stroke-width="2" stroke-dasharray="1,5" d="M824.467,-265.745C845.282,-239.046 878.189,-196.834 904.95,-162.506"/>
<polygon fill="black" stroke="black" points="907.87,-164.453 911.258,-154.414 902.349,-160.149 907.87,-164.453"/>
<text text-anchor="middle" x="862.5" y="-235.4" font-family="Times Roman,serif" font-size="14.00">++</text>
</g>
<!-- 13 -->
<g id="node25" class="node"><title>13</title>
<ellipse fill="#aacccc" stroke="black" cx="1090" cy="-106" rx="39.0967" ry="39.598"/>
<text text-anchor="middle" x="1090" y="-102.4" font-family="Times Roman,serif" font-size="14.00">Costo</text>
</g>
<!-- 12&#45;&gt;13 -->
<g id="edge26" class="edge"><title>12&#45;&gt;13</title>
<path fill="none" stroke="black" stroke-width="2" stroke-dasharray="1,5" d="M957.348,-272.011C987.566,-265.692 1013.73,-257.748 1026,-248 1054.94,-225.001 1071.22,-186.072 1080.11,-154.785"/>
<polygon fill="black" stroke="black" points="1083.55,-155.49 1082.75,-144.926 1076.78,-153.684 1083.55,-155.49"/>
<text text-anchor="middle" x="1055.5" y="-235.4" font-family="Times Roman,serif" font-size="14.00">++</text>
</g>
<!-- 15 -->
<g id="node30" class="node"><title>15</title>
<polygon fill="yellow" stroke="black" points="1337.89,-318 1118.54,-318 1062.11,-266 1281.46,-266 1337.89,-318"/>
<text text-anchor="middle" x="1200" y="-288.4" font-family="Times Roman,serif" font-size="14.00">Llevarlo en moto</text>
</g>
<!-- 14&#45;&gt;15 -->
<g id="edge32" class="edge"><title>14&#45;&gt;15</title>
<path fill="none" stroke="black" d="M1404.67,-352.995C1366.96,-341.757 1324.12,-328.99 1287.42,-318.051"/>
<polygon fill="black" stroke="black" points="1404.07,-356.466 1414.65,-355.968 1406.07,-349.758 1404.07,-356.466"/>
</g>
<!-- 17 -->
<g id="node35" class="node"><title>17</title>
<polygon fill="yellow" stroke="black" points="1657.87,-318 1417.87,-318 1356.13,-266 1596.13,-266 1657.87,-318"/>
<text text-anchor="middle" x="1507" y="-288.4" font-family="Times Roman,serif" font-size="14.00">Llevarlo en tanque</text>
</g>
<!-- 14&#45;&gt;17 -->
<g id="edge38" class="edge"><title>14&#45;&gt;17</title>
<path fill="none" stroke="black" d="M1504.01,-345.865C1504.52,-336.644 1505.06,-326.907 1505.54,-318.285"/>
<polygon fill="black" stroke="black" points="1500.51,-345.789 1503.45,-355.968 1507.5,-346.178 1500.51,-345.789"/>
</g>
<!-- 15&#45;&gt;11 -->
<g id="edge36" class="edge"><title>15&#45;&gt;11</title>
<path fill="none" stroke="black" stroke-width="2" stroke-dasharray="1,5" d="M1064.02,-267.887C1042.35,-262.096 1024.08,-255.411 1015,-248 992.305,-229.474 977.021,-201.382 966.932,-175.06"/>
<polygon fill="black" stroke="black" points="970.15,-173.668 963.445,-165.464 963.57,-176.058 970.15,-173.668"/>
<text text-anchor="middle" x="1020.5" y="-235.4" font-family="Times Roman,serif" font-size="14.00">&#45;&#45;</text>
</g>
<!-- 16 -->
<g id="node32" class="node"><title>16</title>
<ellipse fill="#aacccc" stroke="black" cx="1215" cy="-106" rx="56.7776" ry="57.2756"/>
<text text-anchor="middle" x="1215" y="-102.4" font-family="Times Roman,serif" font-size="14.00">Velocidad</text>
</g>
<!-- 15&#45;&gt;16 -->
<g id="edge34" class="edge"><title>15&#45;&gt;16</title>
<path fill="none" stroke="black" stroke-width="2" stroke-dasharray="1,5" d="M1202.12,-265.745C1204.04,-241.89 1206.96,-205.652 1209.54,-173.718"/>
<polygon fill="black" stroke="black" points="1213.05,-173.771 1210.36,-163.522 1206.07,-173.208 1213.05,-173.771"/>
<text text-anchor="middle" x="1216.5" y="-235.4" font-family="Times Roman,serif" font-size="14.00">++</text>
</g>
<!-- 17&#45;&gt;11 -->
<g id="edge44" class="edge"><title>17&#45;&gt;11</title>
<path fill="none" stroke="black" stroke-width="2" stroke-dasharray="1,5" d="M1357.57,-267.483C1354.01,-266.975 1350.48,-266.48 1347,-266 1210.62,-247.211 1159.63,-283.508 1042,-212 1022.14,-199.925 1004.21,-182.223 989.522,-164.731"/>
<polygon fill="black" stroke="black" points="992.034,-162.273 983.005,-156.73 986.607,-166.694 992.034,-162.273"/>
<text text-anchor="middle" x="1122.5" y="-235.4" font-family="Times Roman,serif" font-size="14.00">&#45;&#45;</text>
</g>
<!-- 17&#45;&gt;13 -->
<g id="edge42" class="edge"><title>17&#45;&gt;13</title>
<path fill="none" stroke="black" stroke-width="2" stroke-dasharray="1,5" d="M1393.42,-265.993C1344.14,-254.789 1285.75,-241.62 1233,-230 1195.71,-221.787 1179.69,-234.709 1149,-212 1129.33,-197.443 1115.36,-174.261 1105.97,-153.284"/>
<polygon fill="black" stroke="black" points="1109.09,-151.685 1101.97,-143.839 1102.64,-154.413 1109.09,-151.685"/>
<text text-anchor="middle" x="1320.5" y="-235.4" font-family="Times Roman,serif" font-size="14.00">++</text>
</g>
<!-- 17&#45;&gt;16 -->
<g id="edge40" class="edge"><title>17&#45;&gt;16</title>
<path fill="none" stroke="black" stroke-width="2" stroke-dasharray="1,5" d="M1466.09,-265.942C1415.48,-233.703 1329.03,-178.635 1271.95,-142.278"/>
<polygon fill="black" stroke="black" points="1273.72,-139.253 1263.4,-136.833 1269.96,-145.157 1273.72,-139.253"/>
<text text-anchor="middle" x="1448.5" y="-235.4" font-family="Times Roman,serif" font-size="14.00">++</text>
</g>
</g>
</svg>
