<?xml version="1.0" encoding="UTF-8" standalone="no"?>
<!DOCTYPE svg PUBLIC "-//W3C//DTD SVG 1.1//EN"
 "http://www.w3.org/Graphics/SVG/1.1/DTD/svg11.dtd">
<!-- Generated by graphviz version 2.26.3 (20100126.1600)
 -->
<!-- Title: objetivos Pages: 1 -->
<svg width="2722pt" height="590pt"
 viewBox="0.00 0.00 2722.00 590.00" xmlns="http://www.w3.org/2000/svg" xmlns:xlink="http://www.w3.org/1999/xlink">
<g id="graph1" class="graph" transform="scale(1 1) rotate(0) translate(4 586)">
<title>objetivos</title>
<polygon fill="white" stroke="white" points="-4,5 -4,-586 2719,-586 2719,5 -4,5"/>
<!-- DUMMY0 -->
<g id="node1" class="node"><title>DUMMY0</title>
<ellipse fill="black" stroke="black" cx="1493" cy="-92" rx="1.8" ry="1.8"/>
</g>
<!-- Lograr un sistema de delivery de comida -->
<g id="node2" class="node"><title>Lograr un sistema de delivery de comida</title>
<polygon fill="yellow" stroke="black" points="1798.84,-52 1312.32,-52 1187.16,-1.06581e-14 1673.68,3.55271e-15 1798.84,-52"/>
<text text-anchor="middle" x="1493" y="-22.4" font-family="Times Roman,serif" font-size="14.00">Lograr un sistema de delivery de comida</text>
</g>
<!-- DUMMY0&#45;&gt;Lograr un sistema de delivery de comida -->
<g id="edge2" class="edge"><title>DUMMY0&#45;&gt;Lograr un sistema de delivery de comida</title>
<path fill="none" stroke="black" d="M1493,-90.0959C1493,-85.7037 1493,-74.3177 1493,-62.3388"/>
<polygon fill="black" stroke="black" points="1496.5,-62.2775 1493,-52.2776 1489.5,-62.2776 1496.5,-62.2775"/>
</g>
<!-- Lograr que se registre el pedido del cliente -->
<g id="node4" class="node"><title>Lograr que se registre el pedido del cliente</title>
<polygon fill="yellow" stroke="black" points="1109.89,-184 599.424,-184 468.106,-132 978.576,-132 1109.89,-184"/>
<text text-anchor="middle" x="789" y="-154.4" font-family="Times Roman,serif" font-size="14.00">Lograr que se registre el pedido del cliente</text>
</g>
<!-- Lograr que se registre el pedido del cliente&#45;&gt;DUMMY0 -->
<g id="edge4" class="edge"><title>Lograr que se registre el pedido del cliente&#45;&gt;DUMMY0</title>
<path fill="none" stroke="black" d="M995.466,-138.644C1193.46,-120.082 1466.01,-94.5302 1491.13,-92.1755"/>
</g>
<!-- Lograr que dado el pedido, el cocinero lo prepare -->
<g id="node6" class="node"><title>Lograr que dado el pedido, el cocinero lo prepare</title>
<polygon fill="yellow" stroke="black" points="1857.94,-184 1277.4,-184 1128.06,-132 1708.6,-132 1857.94,-184"/>
<text text-anchor="middle" x="1493" y="-154.4" font-family="Times Roman,serif" font-size="14.00">Lograr que dado el pedido, el cocinero lo prepare</text>
</g>
<!-- Lograr que dado el pedido, el cocinero lo prepare&#45;&gt;DUMMY0 -->
<g id="edge6" class="edge"><title>Lograr que dado el pedido, el cocinero lo prepare&#45;&gt;DUMMY0</title>
<path fill="none" stroke="black" d="M1493,-131.915C1493,-116.926 1493,-99.944 1493,-94.1027"/>
</g>
<!-- DUMMY1 -->
<g id="node8" class="node"><title>DUMMY1</title>
<ellipse fill="black" stroke="black" cx="894" cy="-224" rx="1.8" ry="1.8"/>
</g>
<!-- DUMMY1&#45;&gt;Lograr que dado el pedido, el cocinero lo prepare -->
<g id="edge8" class="edge"><title>DUMMY1&#45;&gt;Lograr que dado el pedido, el cocinero lo prepare</title>
<path fill="none" stroke="black" d="M895.937,-223.787C916.866,-221.48 1103.43,-200.924 1262.52,-183.395"/>
<polygon fill="black" stroke="black" points="1262.92,-186.873 1272.47,-182.299 1262.15,-179.915 1262.92,-186.873"/>
</g>
<!-- Contratar un cocinero piola -->
<g id="node10" class="node"><title>Contratar un cocinero piola</title>
<polygon fill="yellow" stroke="black" points="1106.03,-396 768.735,-396 681.966,-344 1019.26,-344 1106.03,-396"/>
<text text-anchor="middle" x="894" y="-366.4" font-family="Times Roman,serif" font-size="14.00">Contratar un cocinero piola</text>
</g>
<!-- Contratar un cocinero piola&#45;&gt;DUMMY1 -->
<g id="edge10" class="edge"><title>Contratar un cocinero piola&#45;&gt;DUMMY1</title>
<path fill="none" stroke="black" d="M894,-343.898C894,-305.84 894,-238.291 894,-225.96"/>
</g>
<!-- Comprarle una cocina piola -->
<g id="node12" class="node"><title>Comprarle una cocina piola</title>
<polygon fill="yellow" stroke="black" points="663.961,-396 329.96,-396 244.039,-344 578.04,-344 663.961,-396"/>
<text text-anchor="middle" x="454" y="-366.4" font-family="Times Roman,serif" font-size="14.00">Comprarle una cocina piola</text>
</g>
<!-- Comprarle una cocina piola&#45;&gt;DUMMY1 -->
<g id="edge12" class="edge"><title>Comprarle una cocina piola&#45;&gt;DUMMY1</title>
<path fill="none" stroke="black" d="M498.634,-343.919C541.861,-319.755 609.944,-284.541 673,-264 761.236,-235.256 876.423,-225.385 892.185,-224.139"/>
</g>
<!-- Comprarle un horno nuclear -->
<g id="node14" class="node"><title>Comprarle un horno nuclear</title>
<polygon fill="yellow" stroke="black" points="487.755,-582 139.765,-582 50.2451,-530 398.235,-530 487.755,-582"/>
<text text-anchor="middle" x="269" y="-552.4" font-family="Times Roman,serif" font-size="14.00">Comprarle un horno nuclear</text>
</g>
<!-- Comprarle un horno nuclear&#45;&gt;Comprarle una cocina piola -->
<g id="edge14" class="edge"><title>Comprarle un horno nuclear&#45;&gt;Comprarle una cocina piola</title>
<path fill="none" stroke="black" d="M295.114,-529.745C328.031,-496.65 384.654,-439.721 420.664,-403.516"/>
<polygon fill="black" stroke="black" points="423.449,-405.68 428.019,-396.121 418.486,-400.743 423.449,-405.68"/>
</g>
<!-- Hecatombe nuclear -->
<g id="node16" class="node"><title>Hecatombe nuclear</title>
<ellipse fill="#aacccc" stroke="black" cx="1229" cy="-370" rx="104.86" ry="105.359"/>
<text text-anchor="middle" x="1229" y="-366.4" font-family="Times Roman,serif" font-size="14.00">Hecatombe nuclear</text>
</g>
<!-- Comprarle un horno nuclear&#45;&gt;Hecatombe nuclear -->
<g id="edge16" class="edge"><title>Comprarle un horno nuclear&#45;&gt;Hecatombe nuclear</title>
<path fill="none" stroke="black" d="M437.747,-552.804C649.146,-546.611 997.891,-528.532 1115,-476 1127.4,-470.437 1139.33,-462.969 1150.49,-454.559"/>
<polygon fill="black" stroke="black" points="1152.78,-457.212 1158.48,-448.282 1148.46,-451.708 1152.78,-457.212"/>
<text text-anchor="middle" x="1061.5" y="-499.4" font-family="Times Roman,serif" font-size="14.00">++</text>
</g>
<!-- Precio -->
<g id="node18" class="node"><title>Precio</title>
<ellipse fill="#aacccc" stroke="black" cx="185" cy="-370" rx="41.2167" ry="41.7193"/>
<text text-anchor="middle" x="185" y="-366.4" font-family="Times Roman,serif" font-size="14.00">Precio</text>
</g>
<!-- Comprarle un horno nuclear&#45;&gt;Precio -->
<g id="edge18" class="edge"><title>Comprarle un horno nuclear&#45;&gt;Precio</title>
<path fill="none" stroke="black" d="M257.143,-529.745C243.983,-500.605 222.478,-452.987 206.365,-417.308"/>
<polygon fill="black" stroke="black" points="209.49,-415.724 202.184,-408.051 203.11,-418.605 209.49,-415.724"/>
<text text-anchor="middle" x="253.5" y="-499.4" font-family="Times Roman,serif" font-size="14.00">&#45;&#45;</text>
</g>
<!--  Seguridad -->
<g id="node20" class="node"><title> Seguridad</title>
<ellipse fill="#aacccc" stroke="black" cx="63" cy="-370" rx="63.1385" ry="63.6396"/>
<text text-anchor="middle" x="63" y="-366.4" font-family="Times Roman,serif" font-size="14.00"> Seguridad</text>
</g>
<!-- Comprarle un horno nuclear&#45;&gt; Seguridad -->
<g id="edge20" class="edge"><title>Comprarle un horno nuclear&#45;&gt; Seguridad</title>
<path fill="none" stroke="black" d="M213.45,-529.917C187.776,-516.172 157.962,-497.658 135,-476 122.013,-463.75 110.093,-448.764 99.8467,-433.961"/>
<polygon fill="black" stroke="black" points="102.498,-431.632 94.0122,-425.288 96.6901,-435.539 102.498,-431.632"/>
<text text-anchor="middle" x="184.5" y="-499.4" font-family="Times Roman,serif" font-size="14.00">&#45;&#45;</text>
</g>
<!-- Comprarle un horno para pizza -->
<g id="node22" class="node"><title>Comprarle un horno para pizza</title>
<polygon fill="yellow" stroke="black" points="1566.03,-582 1184.2,-582 1085.97,-530 1467.8,-530 1566.03,-582"/>
<text text-anchor="middle" x="1326" y="-552.4" font-family="Times Roman,serif" font-size="14.00">Comprarle un horno para pizza</text>
</g>
<!-- Comprarle un horno para pizza&#45;&gt;Comprarle una cocina piola -->
<g id="edge22" class="edge"><title>Comprarle un horno para pizza&#45;&gt;Comprarle una cocina piola</title>
<path fill="none" stroke="black" d="M1097.07,-535.962C941.505,-520.819 750.449,-498.804 673,-476 613.04,-458.346 549.226,-425.685 506.047,-401.264"/>
<polygon fill="black" stroke="black" points="507.574,-398.106 497.155,-396.186 504.103,-404.185 507.574,-398.106"/>
</g>
<!-- Comprarle un horno para pizza&#45;&gt;Hecatombe nuclear -->
<g id="edge28" class="edge"><title>Comprarle un horno para pizza&#45;&gt;Hecatombe nuclear</title>
<path fill="none" stroke="black" d="M1312.31,-529.745C1304.31,-514.411 1293.65,-493.961 1282.62,-472.826"/>
<polygon fill="black" stroke="black" points="1285.61,-470.988 1277.89,-463.74 1279.41,-474.225 1285.61,-470.988"/>
<text text-anchor="middle" x="1307.5" y="-499.4" font-family="Times Roman,serif" font-size="14.00">&#45;&#45;</text>
</g>
<!-- Seguridad -->
<g id="node24" class="node"><title>Seguridad</title>
<ellipse fill="#aacccc" stroke="black" cx="1511" cy="-370" rx="60.8112" ry="60.8112"/>
<text text-anchor="middle" x="1511" y="-366.4" font-family="Times Roman,serif" font-size="14.00">Seguridad</text>
</g>
<!-- Comprarle un horno para pizza&#45;&gt;Seguridad -->
<g id="edge24" class="edge"><title>Comprarle un horno para pizza&#45;&gt;Seguridad</title>
<path fill="none" stroke="black" d="M1371.62,-529.938C1394.07,-515.768 1420.61,-496.885 1441,-476 1453.8,-462.884 1465.67,-447.112 1475.86,-431.792"/>
<polygon fill="black" stroke="black" points="1478.83,-433.639 1481.34,-423.346 1472.96,-429.827 1478.83,-433.639"/>
<text text-anchor="middle" x="1433.5" y="-499.4" font-family="Times Roman,serif" font-size="14.00">++</text>
</g>
<!--  costo -->
<g id="node26" class="node"><title> costo</title>
<ellipse fill="#aacccc" stroke="black" cx="1392" cy="-370" rx="39.8075" ry="40.3051"/>
<text text-anchor="middle" x="1392" y="-366.4" font-family="Times Roman,serif" font-size="14.00"> costo</text>
</g>
<!-- Comprarle un horno para pizza&#45;&gt; costo -->
<g id="edge26" class="edge"><title>Comprarle un horno para pizza&#45;&gt; costo</title>
<path fill="none" stroke="black" d="M1335.32,-529.745C1345.58,-500.821 1362.3,-453.691 1374.93,-418.102"/>
<polygon fill="black" stroke="black" points="1378.33,-418.99 1378.38,-408.395 1371.73,-416.649 1378.33,-418.99"/>
<text text-anchor="middle" x="1359.5" y="-499.4" font-family="Times Roman,serif" font-size="14.00">++</text>
</g>
<!-- Lograr que preparado el pedido, se lo lleve a la direccion del cliente -->
<g id="node29" class="node"><title>Lograr que preparado el pedido, se lo lleve a la direccion del cliente</title>
<polygon fill="yellow" stroke="black" points="2582.1,-396 1792.91,-396 1589.9,-344 2379.09,-344 2582.1,-396"/>
<text text-anchor="middle" x="2086" y="-366.4" font-family="Times Roman,serif" font-size="14.00">Lograr que preparado el pedido, se lo lleve a la direccion del cliente</text>
</g>
<!-- Lograr que preparado el pedido, se lo lleve a la direccion del cliente&#45;&gt;DUMMY0 -->
<g id="edge30" class="edge"><title>Lograr que preparado el pedido, se lo lleve a la direccion del cliente&#45;&gt;DUMMY0</title>
<path fill="none" stroke="black" d="M2071.04,-343.901C2040.28,-292.996 1964.53,-181.144 1867,-132 1795.85,-96.151 1520.57,-92.3013 1494.92,-92.0191"/>
</g>
<!-- Llevarlo en moto -->
<g id="node31" class="node"><title>Llevarlo en moto</title>
<polygon fill="yellow" stroke="black" points="2223.89,-582 2004.54,-582 1948.11,-530 2167.46,-530 2223.89,-582"/>
<text text-anchor="middle" x="2086" y="-552.4" font-family="Times Roman,serif" font-size="14.00">Llevarlo en moto</text>
</g>
<!-- Llevarlo en moto&#45;&gt;Seguridad -->
<g id="edge36" class="edge"><title>Llevarlo en moto&#45;&gt;Seguridad</title>
<path fill="none" stroke="black" d="M2046.13,-529.87C2023.59,-516.546 1994.31,-501.587 1966,-494 1924.63,-482.916 1618.23,-497.165 1581,-476 1564.34,-466.528 1550.92,-451.271 1540.47,-435.248"/>
<polygon fill="black" stroke="black" points="1543.18,-432.983 1534.96,-426.3 1537.22,-436.651 1543.18,-432.983"/>
<text text-anchor="middle" x="2015.5" y="-499.4" font-family="Times Roman,serif" font-size="14.00">&#45;&#45;</text>
</g>
<!-- Llevarlo en moto&#45;&gt;Lograr que preparado el pedido, se lo lleve a la direccion del cliente -->
<g id="edge32" class="edge"><title>Llevarlo en moto&#45;&gt;Lograr que preparado el pedido, se lo lleve a la direccion del cliente</title>
<path fill="none" stroke="black" d="M2086,-529.745C2086,-497.481 2086,-442.564 2086,-406.281"/>
<polygon fill="black" stroke="black" points="2089.5,-406.121 2086,-396.121 2082.5,-406.121 2089.5,-406.121"/>
</g>
<!-- Velocidad -->
<g id="node33" class="node"><title>Velocidad</title>
<ellipse fill="#aacccc" stroke="black" cx="2657" cy="-370" rx="56.7776" ry="57.2756"/>
<text text-anchor="middle" x="2657" y="-366.4" font-family="Times Roman,serif" font-size="14.00">Velocidad</text>
</g>
<!-- Llevarlo en moto&#45;&gt;Velocidad -->
<g id="edge34" class="edge"><title>Llevarlo en moto&#45;&gt;Velocidad</title>
<path fill="none" stroke="black" d="M2188.99,-549.729C2317.07,-540.236 2526.73,-518.616 2591,-476 2607.31,-465.186 2620.32,-448.82 2630.34,-432.161"/>
<polygon fill="black" stroke="black" points="2633.39,-433.871 2635.3,-423.45 2627.31,-430.405 2633.39,-433.871"/>
<text text-anchor="middle" x="2556.5" y="-499.4" font-family="Times Roman,serif" font-size="14.00">++</text>
</g>
<!-- Llevarlo en tanque -->
<g id="node36" class="node"><title>Llevarlo en tanque</title>
<polygon fill="yellow" stroke="black" points="1914.87,-582 1674.87,-582 1613.13,-530 1853.13,-530 1914.87,-582"/>
<text text-anchor="middle" x="1764" y="-552.4" font-family="Times Roman,serif" font-size="14.00">Llevarlo en tanque</text>
</g>
<!-- Llevarlo en tanque&#45;&gt;Seguridad -->
<g id="edge44" class="edge"><title>Llevarlo en tanque&#45;&gt;Seguridad</title>
<path fill="none" stroke="black" d="M1701.93,-529.855C1650.87,-508.193 1586.09,-480.284 1581,-476 1566.84,-464.078 1554.43,-448.575 1544.16,-433.123"/>
<polygon fill="black" stroke="black" points="1547.02,-431.096 1538.67,-424.566 1541.12,-434.874 1547.02,-431.096"/>
<text text-anchor="middle" x="1664.5" y="-499.4" font-family="Times Roman,serif" font-size="14.00">&#45;&#45;</text>
</g>
<!-- Llevarlo en tanque&#45;&gt; costo -->
<g id="edge42" class="edge"><title>Llevarlo en tanque&#45;&gt; costo</title>
<path fill="none" stroke="black" d="M1615.22,-531.977C1544.03,-517.975 1468.4,-498.624 1441,-476 1423.46,-461.512 1411.88,-439.355 1404.41,-419.038"/>
<polygon fill="black" stroke="black" points="1407.71,-417.886 1401.16,-409.561 1401.09,-420.156 1407.71,-417.886"/>
<text text-anchor="middle" x="1539.5" y="-499.4" font-family="Times Roman,serif" font-size="14.00">++</text>
</g>
<!-- Llevarlo en tanque&#45;&gt;Lograr que preparado el pedido, se lo lleve a la direccion del cliente -->
<g id="edge38" class="edge"><title>Llevarlo en tanque&#45;&gt;Lograr que preparado el pedido, se lo lleve a la direccion del cliente</title>
<path fill="none" stroke="black" d="M1809.11,-529.942C1867.59,-496.16 1969.47,-437.31 2032,-401.19"/>
<polygon fill="black" stroke="black" points="2034.03,-404.064 2040.93,-396.032 2030.52,-398.003 2034.03,-404.064"/>
</g>
<!-- Llevarlo en tanque&#45;&gt;Velocidad -->
<g id="edge40" class="edge"><title>Llevarlo en tanque&#45;&gt;Velocidad</title>
<path fill="none" stroke="black" d="M1822.36,-529.859C1855.3,-516.443 1897.65,-501.398 1937,-494 1972.72,-487.285 2559.47,-494.082 2591,-476 2608.22,-466.127 2621.56,-449.761 2631.6,-432.808"/>
<polygon fill="black" stroke="black" points="2634.74,-434.359 2636.55,-423.92 2628.62,-430.953 2634.74,-434.359"/>
<text text-anchor="middle" x="1949.5" y="-499.4" font-family="Times Roman,serif" font-size="14.00">++</text>
</g>
</g>
</svg>
