<?xml version="1.0" encoding="UTF-8" standalone="no"?>
<!DOCTYPE svg PUBLIC "-//W3C//DTD SVG 1.1//EN"
 "http://www.w3.org/Graphics/SVG/1.1/DTD/svg11.dtd">
<!-- Generated by graphviz version 2.26.3 (20100126.1600)
 -->
<!-- Title: objetivos Pages: 1 -->
<svg width="2703pt" height="932pt"
 viewBox="0.00 0.00 2703.00 932.00" xmlns="http://www.w3.org/2000/svg" xmlns:xlink="http://www.w3.org/1999/xlink">
<g id="graph1" class="graph" transform="scale(1 1) rotate(0) translate(4 928)">
<title>objetivos</title>
<polygon fill="white" stroke="white" points="-4,5 -4,-928 2700,-928 2700,5 -4,5"/>
<!-- 1 -->
<g id="node1" class="node"><title>1</title>
<ellipse fill="black" stroke="black" cx="1025" cy="-830" rx="3.6" ry="3.6"/>
</g>
<!-- 2 -->
<g id="node2" class="node"><title>2</title>
<polygon fill="yellow" stroke="black" points="641.894,-788 131.424,-788 0.106355,-736 510.576,-736 641.894,-788"/>
<text text-anchor="middle" x="321" y="-758.4" font-family="Times Roman,serif" font-size="14.00">Lograr que se registre el pedido del cliente</text>
</g>
<!-- 1&#45;&gt;2 -->
<g id="edge2" class="edge"><title>1&#45;&gt;2</title>
<path fill="none" stroke="black" d="M1021.21,-829.634C990.178,-826.637 774.273,-805.782 590.309,-788.013"/>
</g>
<!-- 4 -->
<g id="node6" class="node"><title>4</title>
<polygon fill="yellow" stroke="black" points="1389.94,-788 809.404,-788 660.063,-736 1240.6,-736 1389.94,-788"/>
<text text-anchor="middle" x="1025" y="-758.4" font-family="Times Roman,serif" font-size="14.00">Lograr que dado el pedido, el cocinero lo prepare</text>
</g>
<!-- 1&#45;&gt;4 -->
<g id="edge6" class="edge"><title>1&#45;&gt;4</title>
<path fill="none" stroke="black" d="M1025,-826.344C1025,-819.172 1025,-802.691 1025,-788.205"/>
</g>
<!-- 13 -->
<g id="node27" class="node"><title>13</title>
<polygon fill="yellow" stroke="black" points="2400.1,-788 1610.91,-788 1407.9,-736 2197.09,-736 2400.1,-788"/>
<text text-anchor="middle" x="1904" y="-758.4" font-family="Times Roman,serif" font-size="14.00">Lograr que preparado el pedido, se lo lleve a la direccion del cliente</text>
</g>
<!-- 1&#45;&gt;13 -->
<g id="edge30" class="edge"><title>1&#45;&gt;13</title>
<path fill="none" stroke="black" d="M1028.92,-829.697C1066.26,-826.808 1363.07,-803.847 1600.82,-785.455"/>
</g>
<!-- 3 -->
<g id="node4" class="node"><title>3</title>
<polygon fill="yellow" stroke="black" points="486.248,-672 403.624,-693.229 238.376,-693.229 155.752,-672 238.376,-650.771 403.624,-650.771 486.248,-672"/>
<text text-anchor="middle" x="321" y="-668.4" font-family="Times Roman,serif" font-size="14.00">Pibe de la caja registradora</text>
</g>
<!-- 2&#45;&gt;3 -->
<g id="edge4" class="edge"><title>2&#45;&gt;3</title>
<path fill="none" stroke="black" d="M321,-735.968C321,-722.367 321,-705.935 321,-693.131"/>
</g>
<!-- 5 -->
<g id="node8" class="node"><title>5</title>
<ellipse fill="black" stroke="black" cx="1025" cy="-672" rx="3.6" ry="3.6"/>
</g>
<!-- 4&#45;&gt;5 -->
<g id="edge28" class="edge"><title>4&#45;&gt;5</title>
<path fill="none" stroke="black" d="M1025,-725.964C1025,-706.254 1025,-684.154 1025,-675.626"/>
<polygon fill="black" stroke="black" points="1021.5,-725.968 1025,-735.968 1028.5,-725.968 1021.5,-725.968"/>
</g>
<!-- 6 -->
<g id="node9" class="node"><title>6</title>
<polygon fill="yellow" stroke="black" points="1524.96,-500 1190.96,-500 1105.04,-448 1439.04,-448 1524.96,-500"/>
<text text-anchor="middle" x="1315" y="-470.4" font-family="Times Roman,serif" font-size="14.00">Comprarle una cocina piola</text>
</g>
<!-- 5&#45;&gt;6 -->
<g id="edge8" class="edge"><title>5&#45;&gt;6</title>
<path fill="none" stroke="black" d="M1028.26,-669.776C1052.37,-653.313 1204.23,-549.629 1276.66,-500.178"/>
</g>
<!-- 12 -->
<g id="node24" class="node"><title>12</title>
<polygon fill="yellow" stroke="black" points="1087.03,-500 749.735,-500 662.966,-448 1000.26,-448 1087.03,-500"/>
<text text-anchor="middle" x="875" y="-470.4" font-family="Times Roman,serif" font-size="14.00">Contratar un cocinero piola</text>
</g>
<!-- 5&#45;&gt;12 -->
<g id="edge26" class="edge"><title>5&#45;&gt;12</title>
<path fill="none" stroke="black" d="M1022.64,-668.89C1008.26,-649.899 931.646,-548.772 894.81,-500.149"/>
</g>
<!-- 7 -->
<g id="node11" class="node"><title>7</title>
<polygon fill="yellow" stroke="black" points="1658.75,-318 1310.76,-318 1221.25,-266 1569.24,-266 1658.75,-318"/>
<text text-anchor="middle" x="1440" y="-288.4" font-family="Times Roman,serif" font-size="14.00">Comprarle un horno nuclear</text>
</g>
<!-- 6&#45;&gt;7 -->
<g id="edge10" class="edge"><title>6&#45;&gt;7</title>
<path fill="none" stroke="black" d="M1338.79,-439.361C1363.08,-403.997 1400.23,-349.901 1422.12,-318.028"/>
<polygon fill="black" stroke="black" points="1335.69,-437.699 1332.91,-447.924 1341.46,-441.662 1335.69,-437.699"/>
</g>
<!-- 11 -->
<g id="node19" class="node"><title>11</title>
<polygon fill="yellow" stroke="black" points="1203.03,-318 821.198,-318 722.973,-266 1104.8,-266 1203.03,-318"/>
<text text-anchor="middle" x="963" y="-288.4" font-family="Times Roman,serif" font-size="14.00">Comprarle un horno para pizza</text>
</g>
<!-- 6&#45;&gt;11 -->
<g id="edge18" class="edge"><title>6&#45;&gt;11</title>
<path fill="none" stroke="black" d="M1259.09,-442.962C1215.06,-418.741 1151.98,-384.531 1096,-356 1070.77,-343.142 1042.54,-329.46 1018.6,-318.061"/>
<polygon fill="black" stroke="black" points="1257.46,-446.062 1267.91,-447.821 1260.84,-439.931 1257.46,-446.062"/>
</g>
<!-- 8 -->
<g id="node13" class="node"><title>8</title>
<ellipse fill="#aacccc" stroke="black" cx="1087" cy="-106" rx="104.86" ry="105.359"/>
<text text-anchor="middle" x="1087" y="-102.4" font-family="Times Roman,serif" font-size="14.00">Hecatombe nuclear</text>
</g>
<!-- 7&#45;&gt;8 -->
<g id="edge12" class="edge"><title>7&#45;&gt;8</title>
<path fill="none" stroke="black" stroke-width="2" stroke-dasharray="1,5" d="M1336.27,-265.989C1296.23,-253.269 1251.2,-235.528 1214,-212 1200.33,-203.355 1186.53,-193.384 1173.32,-183.09"/>
<polygon fill="black" stroke="black" points="1175.19,-180.106 1165.17,-176.647 1170.85,-185.596 1175.19,-180.106"/>
<text text-anchor="middle" x="1297.5" y="-235.4" font-family="Times Roman,serif" font-size="14.00">++</text>
</g>
<!-- 9 -->
<g id="node15" class="node"><title>9</title>
<ellipse fill="#aacccc" stroke="black" cx="1386" cy="-106" rx="60.8112" ry="60.8112"/>
<text text-anchor="middle" x="1386" y="-102.4" font-family="Times Roman,serif" font-size="14.00">Seguridad</text>
</g>
<!-- 7&#45;&gt;9 -->
<g id="edge14" class="edge"><title>7&#45;&gt;9</title>
<path fill="none" stroke="black" stroke-width="2" stroke-dasharray="1,5" d="M1432.38,-265.745C1425.5,-242.059 1415.08,-206.165 1405.86,-174.397"/>
<polygon fill="black" stroke="black" points="1409.19,-173.317 1403.04,-164.689 1402.47,-175.268 1409.19,-173.317"/>
<text text-anchor="middle" x="1432.5" y="-235.4" font-family="Times Roman,serif" font-size="14.00">&#45;&#45;</text>
</g>
<!-- 10 -->
<g id="node17" class="node"><title>10</title>
<ellipse fill="#aacccc" stroke="black" cx="1262" cy="-106" rx="39.0967" ry="39.598"/>
<text text-anchor="middle" x="1262" y="-102.4" font-family="Times Roman,serif" font-size="14.00">Costo</text>
</g>
<!-- 7&#45;&gt;10 -->
<g id="edge16" class="edge"><title>7&#45;&gt;10</title>
<path fill="none" stroke="black" stroke-width="2" stroke-dasharray="1,5" d="M1414.5,-265.837C1401.49,-253.638 1384.87,-239.707 1368,-230 1346.8,-217.804 1334.44,-228.061 1316,-212 1298.25,-196.545 1285.6,-173.846 1277.03,-153.414"/>
<polygon fill="black" stroke="black" points="1280.21,-151.919 1273.26,-143.915 1273.7,-154.501 1280.21,-151.919"/>
<text text-anchor="middle" x="1399.5" y="-235.4" font-family="Times Roman,serif" font-size="14.00">&#45;&#45;</text>
</g>
<!-- 11&#45;&gt;8 -->
<g id="edge24" class="edge"><title>11&#45;&gt;8</title>
<path fill="none" stroke="black" stroke-width="2" stroke-dasharray="1,5" d="M980.503,-265.745C991.741,-248.889 1007.1,-225.85 1022.66,-202.515"/>
<polygon fill="black" stroke="black" points="1025.75,-204.178 1028.39,-193.916 1019.93,-200.295 1025.75,-204.178"/>
<text text-anchor="middle" x="1009.5" y="-235.4" font-family="Times Roman,serif" font-size="14.00">&#45;&#45;</text>
</g>
<!-- 11&#45;&gt;9 -->
<g id="edge20" class="edge"><title>11&#45;&gt;9</title>
<path fill="none" stroke="black" stroke-width="2" stroke-dasharray="1,5" d="M1122.69,-275.329C1211.41,-265.5 1305.66,-253.87 1314,-248 1338.87,-230.5 1355.67,-201.812 1366.73,-174.786"/>
<polygon fill="black" stroke="black" points="1370.05,-175.906 1370.41,-165.317 1363.52,-173.371 1370.05,-175.906"/>
<text text-anchor="middle" x="1345.5" y="-235.4" font-family="Times Roman,serif" font-size="14.00">++</text>
</g>
<!-- 11&#45;&gt;10 -->
<g id="edge22" class="edge"><title>11&#45;&gt;10</title>
<path fill="none" stroke="black" stroke-width="2" stroke-dasharray="1,5" d="M1095.47,-265.976C1132.44,-254.038 1170.74,-236.796 1201,-212 1220.01,-196.421 1234.31,-173.255 1244.26,-152.549"/>
<polygon fill="black" stroke="black" points="1247.54,-153.794 1248.53,-143.245 1241.17,-150.875 1247.54,-153.794"/>
<text text-anchor="middle" x="1186.5" y="-235.4" font-family="Times Roman,serif" font-size="14.00">++</text>
</g>
<!-- 14 -->
<g id="node29" class="node"><title>14</title>
<polygon fill="yellow" stroke="black" points="1893.89,-698 1674.54,-698 1618.11,-646 1837.46,-646 1893.89,-698"/>
<text text-anchor="middle" x="1756" y="-668.4" font-family="Times Roman,serif" font-size="14.00">Llevarlo en moto</text>
</g>
<!-- 13&#45;&gt;14 -->
<g id="edge32" class="edge"><title>13&#45;&gt;14</title>
<path fill="none" stroke="black" d="M1852.27,-730.545C1834.86,-719.956 1815.63,-708.263 1798.97,-698.129"/>
<polygon fill="black" stroke="black" points="1850.83,-733.763 1861.19,-735.968 1854.47,-727.782 1850.83,-733.763"/>
</g>
<!-- 17 -->
<g id="node35" class="node"><title>17</title>
<polygon fill="yellow" stroke="black" points="2213.87,-698 1973.87,-698 1912.13,-646 2152.13,-646 2213.87,-698"/>
<text text-anchor="middle" x="2063" y="-668.4" font-family="Times Roman,serif" font-size="14.00">Llevarlo en tanque</text>
</g>
<!-- 13&#45;&gt;17 -->
<g id="edge38" class="edge"><title>13&#45;&gt;17</title>
<path fill="none" stroke="black" d="M1958.8,-730.982C1977.71,-720.278 1998.69,-708.402 2016.84,-698.129"/>
<polygon fill="black" stroke="black" points="1956.97,-727.996 1949.99,-735.968 1960.42,-734.088 1956.97,-727.996"/>
</g>
<!-- 15 -->
<g id="node31" class="node"><title>15</title>
<ellipse fill="#aacccc" stroke="black" cx="1948" cy="-474" rx="56.7776" ry="57.2756"/>
<text text-anchor="middle" x="1948" y="-470.4" font-family="Times Roman,serif" font-size="14.00">Velocidad</text>
</g>
<!-- 14&#45;&gt;15 -->
<g id="edge34" class="edge"><title>14&#45;&gt;15</title>
<path fill="none" stroke="black" stroke-width="2" stroke-dasharray="1,5" d="M1786.16,-645.762C1800.84,-633.834 1819.14,-620.152 1837,-610 1855.73,-599.355 1865.82,-606.214 1882,-592 1899.05,-577.023 1912.64,-556.526 1922.95,-536.816"/>
<polygon fill="black" stroke="black" points="1926.09,-538.345 1927.45,-527.837 1919.84,-535.206 1926.09,-538.345"/>
<text text-anchor="middle" x="1849.5" y="-615.4" font-family="Times Roman,serif" font-size="14.00">++</text>
</g>
<!-- 16 -->
<g id="node33" class="node"><title>16</title>
<ellipse fill="#aacccc" stroke="black" cx="1756" cy="-474" rx="116.88" ry="117.38"/>
<text text-anchor="middle" x="1756" y="-470.4" font-family="Times Roman,serif" font-size="14.00">Destruccion vehicular</text>
</g>
<!-- 14&#45;&gt;16 -->
<g id="edge36" class="edge"><title>14&#45;&gt;16</title>
<path fill="none" stroke="black" stroke-width="2" stroke-dasharray="1,5" d="M1756,-645.707C1756,-633.685 1756,-618.476 1756,-602.1"/>
<polygon fill="black" stroke="black" points="1759.5,-601.771 1756,-591.771 1752.5,-601.771 1759.5,-601.771"/>
<text text-anchor="middle" x="1761.5" y="-615.4" font-family="Times Roman,serif" font-size="14.00">&#45;&#45;</text>
</g>
<!-- 17&#45;&gt;15 -->
<g id="edge44" class="edge"><title>17&#45;&gt;15</title>
<path fill="none" stroke="black" stroke-width="2" stroke-dasharray="1,5" d="M2046.63,-645.855C2036.98,-630.302 2024.62,-610.13 2014,-592 2002.89,-573.028 1991.07,-552.142 1980.56,-533.283"/>
<polygon fill="black" stroke="black" points="1983.59,-531.528 1975.67,-524.491 1977.47,-534.931 1983.59,-531.528"/>
<text text-anchor="middle" x="2040.5" y="-615.4" font-family="Times Roman,serif" font-size="14.00">&#45;&#45;</text>
</g>
<!-- 17&#45;&gt;16 -->
<g id="edge42" class="edge"><title>17&#45;&gt;16</title>
<path fill="none" stroke="black" stroke-width="2" stroke-dasharray="1,5" d="M1989.19,-645.942C1955.17,-632.314 1915.1,-613.892 1882,-592 1869.7,-583.862 1857.47,-574.491 1845.74,-564.663"/>
<polygon fill="black" stroke="black" points="1847.98,-561.979 1838.11,-558.147 1843.44,-567.302 1847.98,-561.979"/>
<text text-anchor="middle" x="1955.5" y="-615.4" font-family="Times Roman,serif" font-size="14.00">++</text>
</g>
<!-- 18 -->
<g id="node37" class="node"><title>18</title>
<polygon fill="yellow" stroke="black" points="2555.23,-500 2162.77,-500 2023,-448 2695,-448 2555.23,-500"/>
<text text-anchor="middle" x="2359" y="-470.4" font-family="Times Roman,serif" font-size="14.00">Una pizzeria puede comprar un manso tanque</text>
</g>
<!-- 17&#45;&gt;18 -->
<g id="edge40" class="edge"><title>17&#45;&gt;18</title>
<path fill="none" stroke="black" d="M2102,-645.911C2158.67,-608.002 2263.19,-538.088 2319.91,-500.146"/>
</g>
<!-- 19 -->
<g id="node41" class="node"><title>19</title>
<polygon fill="yellow" stroke="black" points="1330.84,-924 844.316,-924 719.158,-872 1205.68,-872 1330.84,-924"/>
<text text-anchor="middle" x="1025" y="-894.4" font-family="Times Roman,serif" font-size="14.00">Lograr un sistema de delivery de comida</text>
</g>
<!-- 19&#45;&gt;1 -->
<g id="edge46" class="edge"><title>19&#45;&gt;1</title>
<path fill="none" stroke="black" d="M1025,-861.605C1025,-850.343 1025,-839.433 1025,-833.851"/>
<polygon fill="black" stroke="black" points="1021.5,-861.904 1025,-871.904 1028.5,-861.904 1021.5,-861.904"/>
</g>
</g>
</svg>
